<svg width="793" height="243" viewBox="0 0 793 243" fill="none" xmlns="http://www.w3.org/2000/svg">
<path fill-rule="evenodd" clip-rule="evenodd" d="M56.2182 8.95757V96.8537H58.1463C63.6953 78.3116 79.6022 64.5841 104.432 64.5841C135.82 64.5841 155.998 86.0151 155.998 115.877V224.23L137.356 210.458V131.608C137.356 106.718 120.675 89.3398 96.7982 89.3398C85.8908 89.3398 76.0148 93.27 68.9861 100.402C63.4116 106.032 59.6457 113.648 57.8338 122.8C57.0102 125.871 56.577 129.214 56.577 132.784L56.5536 137.023C56.203 139.763 56.0624 142.834 56.1734 146.266V196.82L8.92319 196.876V8.95757H56.1734H56.2182ZM72.7453 104.526C76.4719 102.827 80.7326 101.914 85.4091 101.914C101.72 101.914 114.488 116.369 114.488 134.833V193.564L131.751 206.317V131.564C131.751 109.976 117.38 94.8935 96.7982 94.8935C87.4042 94.8935 78.9518 98.2526 72.9769 104.288C72.8993 104.367 72.8221 104.446 72.7453 104.526ZM108.883 134.833V189.423L92.7964 177.539V144.788C93.1776 123.335 82.7074 116.796 74.6811 116.796H74.3672C71.0703 116.868 67.6839 117.841 64.7382 120.103C68.3839 112.193 75.7222 107.513 85.4091 107.513C98.3566 107.513 108.883 119.762 108.883 134.833ZM65.1414 0H0V205.811H8.968L56.2182 205.755H65.1862V145.964C64.9171 137.51 66.4081 131.128 69.3787 128.048C70.0479 127.333 70.859 126.764 71.7603 126.378C72.6616 125.993 73.6334 125.799 74.6138 125.809H74.7371C75.6335 125.82 76.5182 126.014 77.3372 126.378C78.1563 126.741 78.8927 127.268 79.5014 127.925C82.472 130.937 83.9853 136.883 83.8845 144.721V182.152L87.5165 184.84L150.707 231.531L165.011 242.101V115.877C165.011 80.4054 140.103 55.6266 104.477 55.6266C90.7898 55.6266 78.4476 59.4111 68.7622 66.566C67.5403 67.4729 66.3632 68.4247 65.231 69.4324V0.0112079L65.1414 0Z" fill="#1A2A52"/>
<path d="M241.312 173.002V144.702C241.312 135.902 246.812 130.202 254.112 130.202C261.412 130.202 267.012 135.802 267.012 144.302V173.002H283.412V140.302C283.412 127.402 274.612 118.202 261.612 118.202C251.612 118.202 244.712 123.702 242.112 131.502H241.312V95.1016H225.012V173.002H241.312Z" fill="#1A2A52"/>
<path d="M314.369 174.402C325.069 174.402 332.869 167.502 335.369 158.402H336.169V173.002H352.469V119.602H350.269L340.469 130.402H340.169C335.369 122.902 327.169 118.202 317.169 118.202C301.269 118.202 289.769 130.502 289.769 146.302C289.769 162.902 299.769 174.402 314.369 174.402ZM321.969 160.502C313.369 160.502 306.869 154.402 306.869 146.102C306.869 137.902 313.469 131.602 322.069 131.602C330.669 131.602 336.969 137.902 336.969 146.002C336.969 154.302 330.569 160.502 321.969 160.502Z" fill="#1A2A52"/>
<path d="M392.265 174.402C396.265 174.402 400.865 173.302 402.465 172.902L402.165 158.702C401.165 159.302 397.765 160.502 394.165 160.502C387.965 160.502 384.465 157.002 384.465 149.902V132.002H402.865V119.602H384.465V105.302H380.965L356.765 123.402V131.902H368.165V154.302C368.165 169.002 378.065 174.402 392.265 174.402Z" fill="#1A2A52"/>
<path d="M438.391 174.402C445.691 174.402 453.391 172.302 458.191 169.402V155.302C453.591 158.702 446.591 161.202 440.091 161.202C429.991 161.202 422.691 155.102 422.691 146.002C422.691 137.502 429.591 131.402 438.691 131.402C445.091 131.402 449.291 133.302 453.091 136.702L456.991 124.702C452.091 120.302 443.791 118.202 436.991 118.202C418.791 118.202 405.991 130.302 405.991 146.202C405.991 162.702 419.891 174.402 438.391 174.402Z" fill="#1A2A52"/>
<path d="M480.108 173.002V144.702C480.108 135.902 485.608 130.202 492.908 130.202C500.208 130.202 505.808 135.802 505.808 144.302V173.002H522.208V140.302C522.208 127.402 513.408 118.202 500.408 118.202C490.408 118.202 483.508 123.702 480.908 131.502H480.108V95.1016H463.808V173.002H480.108Z" fill="#1A2A52"/>
<path d="M551.981 175.002L566.981 146.302H567.781L582.681 175.002H586.481L610.081 119.602H592.381L581.781 143.502H580.981L569.381 118.202H565.381L553.881 143.502H552.981L542.381 119.602H524.581L548.281 175.002H551.981Z" fill="#1A2A52"/>
<path d="M633.201 174.402C643.901 174.402 651.701 167.502 654.201 158.402H655.001V173.002H671.301V119.602H669.101L659.301 130.402H659.001C654.201 122.902 646.001 118.202 636.001 118.202C620.101 118.202 608.601 130.502 608.601 146.302C608.601 162.902 618.601 174.402 633.201 174.402ZM640.801 160.502C632.201 160.502 625.701 154.402 625.701 146.102C625.701 137.902 632.301 131.602 640.901 131.602C649.501 131.602 655.801 137.902 655.801 146.002C655.801 154.302 649.401 160.502 640.801 160.502Z" fill="#1A2A52"/>
<path d="M703.897 196.602C725.897 196.602 739.197 183.902 739.197 167.902V119.602H722.897V146.902C722.897 155.802 717.497 161.602 710.197 161.602C702.697 161.602 697.197 156.202 697.197 147.502V119.602H680.897V151.802C680.897 164.902 689.497 173.502 702.697 173.502C712.697 173.502 719.597 168.102 722.197 160.302H722.897V164.002C722.897 175.102 714.197 182.502 702.097 182.502C695.597 182.502 689.197 181.202 683.097 178.002L679.797 192.002C686.097 194.602 696.697 196.602 703.897 196.602Z" fill="#1A2A52"/>
<path d="M769.849 174.402C784.249 174.402 792.149 167.502 792.149 157.802C792.149 149.202 786.849 143.702 773.649 141.302C765.249 139.602 762.949 137.402 762.949 134.402C762.949 131.302 766.549 129.702 772.449 129.702C777.549 129.702 783.949 131.302 787.249 133.102V121.402C782.849 119.702 777.649 118.202 768.549 118.202C754.649 118.202 746.649 125.102 746.649 133.902C746.649 142.502 752.649 148.102 764.649 150.502C773.549 152.202 775.949 154.002 775.949 157.302C775.949 160.502 772.449 162.302 766.049 162.302C759.549 162.302 751.549 159.602 746.449 155.802L742.949 168.002C750.149 172.002 759.649 174.402 769.849 174.402Z" fill="#1A2A52"/>
</svg>
